<?xml version="1.0" standalone="no"?>
<!DOCTYPE svg PUBLIC "-//W3C//DTD SVG 20010904//EN"
 "http://www.w3.org/TR/2001/REC-SVG-20010904/DTD/svg10.dtd">
<svg version="1.0" xmlns="http://www.w3.org/2000/svg"
 width="125.000000pt" height="125.000000pt" viewBox="0 0 125.000000 125.000000"
 preserveAspectRatio="xMidYMid meet">
<metadata>
Created by potrace 1.14, written by Peter Selinger 2001-2017
</metadata>
<g transform="translate(0.000000,125.000000) scale(0.100000,-0.100000)"
fill="#000000" stroke="none">
<path d="M620 830 c-129 -65 -238 -119 -242 -119 -4 -1 -8 14 -10 32 l-3 32
-165 0 -165 0 -3 -167 -2 -168 80 0 80 0 0 -125 0 -125 340 0 340 0 0 -80 0
-80 170 0 170 0 0 165 0 165 -170 0 -170 0 0 -80 0 -80 -335 0 -335 0 0 120 0
120 85 0 85 0 0 128 0 127 253 127 c138 70 248 127 242 127 -5 0 -116 -54
-245 -119z"/>
</g>
</svg>
